# xmcd
#
# Track frame offsets:
#	150
#	10218
#	22415
#	32529
#	43452
#	57026
#	70314
#	86306
#	98020
#	109946
#	120393
#	131813
#	140805
#	152652
#	164301
#	177807
#	187581
#	200045
#	212096
#	225751
#	238288
#	253886
#	263162
#	275917
#	286154
#	297503
#	310811
#	323547
#	332998
#	344819
#
# Disc length: 4736 seconds
#
# Revision: 1
# Processed by: cddbd v1.5.2PL0 Copyright (c) Steve Scherf et al.
# Submitted via: EasyCDDAExtractor 6.5.0.1
#
DISCID=c8127e1e
DTITLE=JEANNIE C. RILEY - Harper Valley P.T.A.;The Plantation Recordings 1968-
DTITLE=70 - Disc 2
DYEAR=2013
DGENRE=Country
TTITLE0=A REAL WOMAN
TTITLE1=THERE NEVER WAS A TIME
TTITLE2=THINGS GO BETTER WITH LOVE
TTITLE3=I'M THE WOMAN
TTITLE4=THE WEDDING CAKE
TTITLE5=THIN RIBBON OF SMOKE
TTITLE6=OUR MINNIE
TTITLE7=THE BACK SIDE OF DALLAS
TTITLE8=COUNTRY GIRL
TTITLE9=A CHANGE OF HEART
TTITLE10=AM I THAT EASY TO FORGET ?
TTITLE11=THAT'S A NO-NO
TTITLE12=WE WERE RAISED ON LOVE
TTITLE13=I ALMOST CALLED YOUR NAME
TTITLE14=DARLING DAYS
TTITLE15=WISH YOU WERE HERE
TTITLE16=YOUR OLD LOVE LETTERS
TTITLE17=I LOVE HIM
TTITLE18=WHEREEVER YOU ARE
TTITLE19=THE GENERATION GAP
TTITLE20=FINE FEATHERED FOWL
TTITLE21=WORDS, NMARS. FACES
TTITLE22=MY MAN
TTITLE23=HE MADE A WOMAN OUT OF ME
TTITLE24=DUTY, NO DESIRE
TTITLE25=GAMES PEOPLE PLAY
TTITLE26=DARKNESS FALLS
TTITLE27=HOLDIN' ON
TTITLE28=OKIE FROM MUSKOGEE
TTITLE29=TO THE OTHER MWOMAN
EXTD=
EXTT0=
EXTT1=
EXTT2=
EXTT3=
EXTT4=
EXTT5=
EXTT6=
EXTT7=
EXTT8=
EXTT9=
EXTT10=
EXTT11=
EXTT12=
EXTT13=
EXTT14=
EXTT15=
EXTT16=
EXTT17=
EXTT18=
EXTT19=
EXTT20=
EXTT21=
EXTT22=
EXTT23=
EXTT24=
EXTT25=
EXTT26=
EXTT27=
EXTT28=
EXTT29=
PLAYORDER=
